<svg width="577" height="146" viewBox="0 0 577 146" fill="none" xmlns="http://www.w3.org/2000/svg">
<path d="M0.323242 112.272V0.492188H40.0132C56.9692 0.492188 70.0372 5.29819 79.2172 14.9102C88.5052 24.5222 93.1492 38.3462 93.1492 56.3822C93.1492 74.4182 88.5052 88.2422 79.2172 97.8542C70.0372 107.466 56.9692 112.272 40.0132 112.272H0.323242ZM40.0132 90.8882C49.0852 90.8882 56.2672 88.2962 61.5592 83.1122C66.8512 77.9282 69.4972 69.0182 69.4972 56.3822C69.4972 43.7462 66.8512 34.8362 61.5592 29.6522C56.2672 24.4682 49.0852 21.8762 40.0132 21.8762H23.9752V90.8882H40.0132Z" fill="#FAF3EA"/>
<path d="M119.339 114.54C112.427 114.54 106.811 112.488 102.491 108.384C98.1708 104.172 96.0108 98.5022 96.0108 91.3742C96.0108 82.7342 99.8988 76.3622 107.675 72.2582C115.559 68.0462 126.629 65.8322 140.885 65.6162V65.1302C140.885 61.2422 139.589 58.1102 136.997 55.7342C134.513 53.3582 131.219 52.1702 127.115 52.1702C123.983 52.1702 120.689 52.7642 117.233 53.9522C113.885 55.1402 110.699 57.0842 107.675 59.7842L97.3068 46.0142C101.195 42.0182 105.839 38.9942 111.239 36.9422C116.639 34.8902 122.525 33.8642 128.897 33.8642C151.793 33.8642 163.241 44.2862 163.241 65.1302V112.272H142.343L140.885 104.01C135.593 111.03 128.411 114.54 119.339 114.54ZM125.495 97.0442C128.735 97.0442 131.543 96.3962 133.919 95.1002C136.403 93.6962 138.725 91.9142 140.885 89.7542V79.5482C125.441 80.3042 117.719 83.8682 117.719 90.2402C117.719 92.5082 118.421 94.2362 119.825 95.4242C121.229 96.5042 123.119 97.0442 125.495 97.0442Z" fill="#FAF3EA"/>
<path d="M202.663 145.32C191.215 145.32 182.143 143.484 175.447 139.812C168.751 136.14 165.403 130.632 165.403 123.288C165.403 116.808 168.373 111.84 174.313 108.384C170.749 105.144 168.967 101.094 168.967 96.2342C168.967 89.2142 172.639 83.9222 179.983 80.3582C174.475 75.4982 171.721 69.0182 171.721 60.9182C171.721 53.0342 174.421 46.5542 179.821 41.4782C185.329 36.4022 192.943 33.8642 202.663 33.8642C207.631 33.8642 212.221 34.6202 216.433 36.1322L229.393 21.8762L241.705 35.6462L228.907 45.5282C232.039 49.9562 233.605 55.0862 233.605 60.9182C233.605 68.8022 230.851 75.2822 225.343 80.3582C219.943 85.4342 212.383 87.9722 202.663 87.9722C198.343 87.9722 194.293 87.3782 190.513 86.1902C188.245 87.3782 187.111 88.9982 187.111 91.0502C187.111 95.0462 190.783 97.0442 198.127 97.0442H215.947C222.859 97.0442 228.637 98.8802 233.281 102.552C237.925 106.224 240.247 111.354 240.247 117.942C240.247 127.122 236.953 133.98 230.365 138.516C223.885 143.052 214.651 145.32 202.663 145.32ZM202.663 72.7442C206.011 72.7442 208.657 71.7182 210.601 69.6662C212.545 67.5062 213.517 64.5902 213.517 60.9182C213.517 57.2462 212.545 54.3842 210.601 52.3322C208.657 50.1722 206.011 49.0922 202.663 49.0922C199.315 49.0922 196.669 50.1722 194.725 52.3322C192.781 54.3842 191.809 57.2462 191.809 60.9182C191.809 64.5902 192.781 67.5062 194.725 69.6662C196.669 71.7182 199.315 72.7442 202.663 72.7442ZM202.663 129.93C209.143 129.93 213.841 129.174 216.757 127.662C219.673 126.15 221.131 123.882 221.131 120.858C221.131 118.806 220.375 117.24 218.863 116.16C217.459 115.08 215.569 114.54 213.193 114.54H194.239C192.079 114.54 189.379 114.324 186.139 113.892C184.843 115.404 184.195 117.24 184.195 119.4C184.195 122.856 185.761 125.448 188.893 127.176C192.025 129.012 196.615 129.93 202.663 129.93Z" fill="#FAF3EA"/>
<g filter="url(#filter0_i_5045_75)">
<path d="M282.69 116.808C272.754 116.808 264.384 114.756 257.58 110.652C250.776 106.548 245.484 101.148 241.704 94.4522L253.368 84.5702C257.04 90.7262 261.144 95.3702 265.68 98.5022C270.324 101.526 276.264 103.038 283.5 103.038C291.06 103.038 296.892 101.364 300.996 98.0162C305.208 94.6682 307.314 89.8622 307.314 83.5982C307.314 77.9822 304.992 73.7162 300.348 70.8002C295.704 67.8842 288.846 65.3462 279.774 63.1862C269.73 60.8102 261.684 57.2462 255.636 52.4942C249.588 47.7422 246.564 40.6142 246.564 31.1102C246.564 24.8462 248.184 19.3922 251.424 14.7482C254.772 10.1042 259.254 6.59419 264.87 4.21819C270.486 1.73419 276.696 0.492188 283.5 0.492188C292.032 0.492188 299.484 2.38219 305.856 6.16219C312.336 9.83419 317.52 14.9102 321.408 21.3902L310.716 30.3002C306.72 24.4682 302.724 20.3102 298.728 17.8262C294.732 15.3422 289.656 14.1002 283.5 14.1002C276.804 14.1002 271.404 15.5582 267.3 18.4742C263.304 21.2822 261.306 25.3322 261.306 30.6242C261.306 34.4042 262.332 37.4822 264.384 39.8582C266.544 42.2342 269.406 44.1782 272.97 45.6902C276.534 47.0942 281.34 48.5522 287.388 50.0642C294.732 51.9002 300.888 54.0062 305.856 56.3822C310.824 58.7582 314.82 62.1062 317.844 66.4262C320.976 70.6382 322.542 76.0922 322.542 82.7882C322.542 93.3722 318.978 101.688 311.85 107.736C304.722 113.784 295.002 116.808 282.69 116.808Z" fill="url(#paint0_linear_5045_75)"/>
<path d="M359.062 114.54H342.214L320.506 38.4002H335.086L350.8 98.6642L367.81 38.4002H383.686L400.534 98.6642L416.248 38.4002H430.99L409.282 114.54H392.434L375.748 54.7622L359.062 114.54Z" fill="url(#paint1_linear_5045_75)"/>
<path d="M455.585 116.808C448.889 116.808 443.219 114.864 438.575 110.976C433.931 107.088 431.609 101.526 431.609 94.2902C431.609 85.3262 435.713 78.7382 443.921 74.5262C452.129 70.3142 464.009 68.1002 479.561 67.8842V64.1582C479.561 59.0822 478.103 55.1402 475.187 52.3322C472.271 49.5242 468.167 48.1202 462.875 48.1202C459.095 48.1202 455.315 48.9842 451.535 50.7122C447.755 52.3322 444.299 54.7082 441.167 57.8402L433.553 48.4442C437.009 44.6642 441.383 41.6942 446.675 39.5342C451.967 37.2662 457.529 36.1322 463.361 36.1322C473.405 36.1322 481.019 38.5082 486.203 43.2602C491.387 48.0122 493.979 54.9782 493.979 64.1582V114.54H481.019L479.561 104.172C477.293 107.628 473.999 110.598 469.679 113.082C465.467 115.566 460.769 116.808 455.585 116.808ZM458.825 104.982C467.033 104.982 473.945 100.824 479.561 92.5082V78.0902C468.005 78.4142 459.473 79.8722 453.965 82.4642C448.565 84.9482 445.865 88.7282 445.865 93.8042C445.865 97.4762 446.999 100.284 449.267 102.228C451.643 104.064 454.829 104.982 458.825 104.982Z" fill="url(#paint2_linear_5045_75)"/>
<path d="M506.238 145.32V38.4002H518.712L519.846 47.6342C522.33 44.1782 525.624 41.4242 529.728 39.3722C533.832 37.2122 538.422 36.1322 543.498 36.1322C549.438 36.1322 554.946 37.6982 560.022 40.8302C565.098 43.9622 569.148 48.6062 572.172 54.7622C575.196 60.8102 576.708 68.0462 576.708 76.4702C576.708 84.8942 575.196 92.1842 572.172 98.3402C569.148 104.388 565.098 108.978 560.022 112.11C554.946 115.242 549.438 116.808 543.498 116.808C538.638 116.808 534.21 115.89 530.214 114.054C526.326 112.218 523.14 109.788 520.656 106.764V145.32H506.238ZM540.096 104.496C546.252 104.496 551.436 102.12 555.648 97.3682C559.86 92.6162 561.966 85.6502 561.966 76.4702C561.966 67.2902 559.86 60.3242 555.648 55.5722C551.436 50.8202 546.252 48.4442 540.096 48.4442C532.32 48.4442 525.84 52.3862 520.656 60.2702V92.8322C525.84 100.608 532.32 104.496 540.096 104.496Z" fill="url(#paint3_linear_5045_75)"/>
</g>
<defs>
<filter id="filter0_i_5045_75" x="241.704" y="0.492188" width="335.003" height="144.828" filterUnits="userSpaceOnUse" color-interpolation-filters="sRGB">
<feFlood flood-opacity="0" result="BackgroundImageFix"/>
<feBlend mode="normal" in="SourceGraphic" in2="BackgroundImageFix" result="shape"/>
<feColorMatrix in="SourceAlpha" type="matrix" values="0 0 0 0 0 0 0 0 0 0 0 0 0 0 0 0 0 0 127 0" result="hardAlpha"/>
<feOffset/>
<feGaussianBlur stdDeviation="3.375"/>
<feComposite in2="hardAlpha" operator="arithmetic" k2="-1" k3="1"/>
<feColorMatrix type="matrix" values="0 0 0 0 1 0 0 0 0 0.866667 0 0 0 0 0.5 0 0 0 1 0"/>
<feBlend mode="normal" in2="shape" result="effect1_innerShadow_5045_75"/>
</filter>
<linearGradient id="paint0_linear_5045_75" x1="402.421" y1="185.125" x2="531.514" y2="-25.3905" gradientUnits="userSpaceOnUse">
<stop stop-color="#EB8D00"/>
<stop offset="0.533654" stop-color="#FFAA00"/>
<stop offset="1" stop-color="#FFDD80"/>
</linearGradient>
<linearGradient id="paint1_linear_5045_75" x1="402.421" y1="185.125" x2="531.514" y2="-25.3905" gradientUnits="userSpaceOnUse">
<stop stop-color="#EB8D00"/>
<stop offset="0.533654" stop-color="#FFAA00"/>
<stop offset="1" stop-color="#FFDD80"/>
</linearGradient>
<linearGradient id="paint2_linear_5045_75" x1="402.421" y1="185.125" x2="531.514" y2="-25.3905" gradientUnits="userSpaceOnUse">
<stop stop-color="#EB8D00"/>
<stop offset="0.533654" stop-color="#FFAA00"/>
<stop offset="1" stop-color="#FFDD80"/>
</linearGradient>
<linearGradient id="paint3_linear_5045_75" x1="402.421" y1="185.125" x2="531.514" y2="-25.3905" gradientUnits="userSpaceOnUse">
<stop stop-color="#EB8D00"/>
<stop offset="0.533654" stop-color="#FFAA00"/>
<stop offset="1" stop-color="#FFDD80"/>
</linearGradient>
</defs>
</svg>
